<?xml version="1.0" encoding="utf-8"?>
<!-- Generator: Adobe Illustrator 26.0.2, SVG Export Plug-In . SVG Version: 6.00 Build 0)  -->
<svg version="1.1" id="Layer_1" xmlns="http://www.w3.org/2000/svg" xmlns:xlink="http://www.w3.org/1999/xlink" x="0px" y="0px"
	 viewBox="0 0 108.7 35.2" style="enable-background:new 0 0 108.7 35.2;" xml:space="preserve">
<style type="text/css">
	.st0{fill:#4b2781;}
</style>
<g>
	<polygon class="st0" points="38.7,5.3 34.2,5.3 31.2,13 28.2,5.3 23.5,5.3 29,16.8 23.2,28.7 27.7,28.7 31.1,20.6 34.6,28.7 
		39.2,28.7 33.3,16.7 	"/>
	<path class="st0" d="M55.1,9.6c0-2.8-1.5-4.3-4.5-4.3h-4.7c-3,0-4.5,1.4-4.5,4.3v14.9c0,2.8,1.5,4.2,4.5,4.2h4.6
		c3,0,4.5-1.4,4.5-4.2V22h-4.2v1.9c0,0.4-0.1,0.8-0.3,1.2c-0.3,0.2-0.7,0.3-1.2,0.3h-2.2c-0.4,0-0.8-0.1-1.2-0.3
		c-0.2-0.3-0.3-0.7-0.3-1.1v-5.6h9.5C55.1,18.4,55.1,9.6,55.1,9.6z M45.6,15.2v-5.1c0-0.4,0.1-0.8,0.3-1.1c0.3-0.2,0.7-0.3,1.2-0.3
		h2.3c0.4-0.1,0.8,0.1,1.1,0.3c0.2,0.3,0.3,0.7,0.3,1.1v5.1C50.8,15.2,45.6,15.2,45.6,15.2z"/>
	<polygon class="st0" points="58.8,2.1 58.8,28.7 63.1,28.7 63.1,0.2 	"/>
	<path class="st0" d="M90.7,25c-0.4,0.1-0.8,0-1.1-0.3c-0.2-0.3-0.3-0.7-0.3-1.1V8.8h3.2V5.3h-3.2V0l-4.4,1.9v3.4h-2.2v3.5h2.2v15.7
		c0,2.8,1.5,4.2,4.5,4.2h3.1V25H90.7z"/>
	<path class="st0" d="M78.1,5.3h-6.8c-2.9,0-4.3,1.4-4.3,4.3v14.9c0,2.8,1.4,4.2,4.3,4.2h9V5.3H78.1z M76.1,23.5
		C76.1,23.5,76.1,23.6,76.1,23.5v1.7h-3.2c-0.4,0-0.8,0-1.2-0.3c-0.2-0.3-0.3-0.7-0.3-1.1V10.2c-0.1-0.4,0-0.8,0.3-1.1
		c0.3-0.2,0.7-0.3,1.2-0.3h3.3v11.3L76.1,23.5z"/>
	<path class="st0" d="M9,5.3H4.4C1.5,5.3,0,6.7,0,9.6v25.7l4.3-1.9v-4.6H9c2.9,0,4.4-1.4,4.4-4.2v-15C13.3,6.7,11.9,5.3,9,5.3z
		 M8.7,24.8c-0.3,0.3-0.8,0.4-1.2,0.4H5.9c-0.4,0-0.9-0.1-1.2-0.4c-0.3-0.4-0.4-0.9-0.4-1.3v-13c0-0.5,0.1-0.9,0.4-1.3
		C5,8.9,5.4,8.8,5.9,8.8h1.5c0.4,0,0.9,0.1,1.2,0.4C8.9,9.6,9.1,10,9,10.5v13C9.1,24,8.9,24.5,8.7,24.8z"/>
	<rect x="16.4" y="5.4" class="st0" width="4.5" height="4.3"/>
	<rect x="16.5" y="12.4" class="st0" width="4.3" height="16.3"/>
	<path class="st0" d="M104.4,22v1.9c0,0.4-0.1,0.8-0.3,1.2c-0.3,0.2-0.8,0.3-1.2,0.3h-2.2c-0.4,0-0.8-0.1-1.2-0.3
		c-0.2-0.3-0.3-0.7-0.3-1.1v-5.6h9.5v-6.8l0,0V8.9h-2.1V6.8h-2.1V6.5l0,0V5.3h-0.3h-4.7c-3,0-4.5,1.4-4.5,4.3v14.9
		c0,2.8,1.5,4.2,4.5,4.2h4.6c3,0,4.5-1.4,4.5-4.2V22H104.4z M99.6,9c0.3-0.2,0.7-0.3,1.1-0.3h1.7v1.9h2.1v4.6h-5.2v-5.1
		C99.3,9.7,99.3,9.3,99.6,9L99.6,9z"/>
</g>
</svg>
